M48
; DRILL file {KiCad (6.0.2)} date Sun Feb  5 15:01:42 2023
; FORMAT={-:-/ absolute / metric / decimal}
; #@! TF.CreationDate,2023-02-05T15:01:42+01:00
; #@! TF.GenerationSoftware,Kicad,Pcbnew,(6.0.2)
; #@! TF.FileFunction,Plated,1,2,PTH
FMAT,2
METRIC
; #@! TA.AperFunction,Plated,PTH,ViaDrill
T1C0.400
; #@! TA.AperFunction,Plated,PTH,ComponentDrill
T2C0.600
; #@! TA.AperFunction,Plated,PTH,ComponentDrill
T3C0.800
; #@! TA.AperFunction,Plated,PTH,ComponentDrill
T4C1.000
; #@! TA.AperFunction,Plated,PTH,ComponentDrill
T5C1.020
; #@! TA.AperFunction,Plated,PTH,ComponentDrill
T6C1.100
; #@! TA.AperFunction,Plated,PTH,ComponentDrill
T7C1.200
%
G90
G05
T1
X109.266Y-79.421
X114.3Y-121.92
X124.46Y-99.695
X126.365Y-122.011
X132.08Y-97.79
X136.525Y-78.74
X139.7Y-64.77
X147.32Y-117.475
X157.48Y-79.375
T2
X105.11Y-76.2
X105.11Y-77.7
X115.57Y-130.81
X117.07Y-130.81
X127.0Y-138.73
X128.5Y-138.73
X166.14Y-54.31
X167.64Y-54.31
X189.23Y-115.34
X189.23Y-116.84
T3
X105.11Y-82.55
X105.11Y-90.17
X106.38Y-71.12
X106.68Y-102.865
X106.68Y-110.485
X106.68Y-113.025
X106.68Y-120.645
X110.19Y-82.55
X110.19Y-90.17
X111.77Y-104.135
X111.77Y-106.675
X111.77Y-109.215
X111.77Y-111.755
X111.77Y-114.295
X111.77Y-116.835
X111.77Y-119.375
X112.73Y-77.47
X113.07Y-125.095
X114.0Y-71.12
X115.57Y-97.79
X118.07Y-125.095
X118.15Y-83.82
X119.39Y-104.135
X119.39Y-106.675
X119.39Y-109.215
X119.39Y-111.755
X119.39Y-114.295
X119.39Y-116.835
X119.39Y-119.375
X120.35Y-77.47
X120.65Y-83.82
X121.92Y-129.84
X121.92Y-137.46
X123.19Y-97.79
X124.46Y-101.6
X124.46Y-109.22
X124.46Y-113.025
X124.46Y-120.645
X124.5Y-77.47
X127.0Y-64.77
X127.0Y-72.39
X128.27Y-123.49
X128.27Y-131.11
X129.5Y-77.47
X133.35Y-68.58
X133.35Y-133.65
X133.35Y-138.73
X133.36Y-55.235
X133.36Y-62.855
X135.9Y-55.235
X135.9Y-62.855
X138.44Y-55.235
X138.44Y-62.855
X139.7Y-81.28
X139.7Y-88.9
X139.7Y-93.98
X139.7Y-101.6
X139.7Y-105.41
X139.7Y-113.03
X140.97Y-68.58
X140.97Y-133.65
X140.97Y-138.73
X140.98Y-55.235
X140.98Y-62.855
X144.78Y-62.484
X144.78Y-70.104
X144.78Y-105.41
X144.78Y-113.03
X149.86Y-76.2
X149.86Y-83.82
X149.86Y-105.41
X149.86Y-113.03
X153.67Y-54.31
X153.67Y-59.39
X154.94Y-62.484
X154.94Y-70.104
X154.94Y-105.41
X154.94Y-113.03
X161.29Y-54.31
X161.29Y-59.39
X165.14Y-77.47
X166.37Y-61.93
X166.37Y-69.55
X170.14Y-77.47
X172.72Y-55.58
X172.72Y-63.2
X172.72Y-83.82
X173.99Y-115.57
X175.22Y-83.82
X180.34Y-121.92
X181.61Y-115.57
X184.15Y-102.87
X184.15Y-110.49
X187.96Y-121.92
X189.23Y-102.87
X189.23Y-110.49
T4
X100.03Y-95.25
X100.03Y-97.79
X105.19Y-96.48
X110.19Y-93.98
X110.19Y-98.98
X121.127Y-59.289
X125.223Y-56.421
X126.043Y-61.951
X129.54Y-55.245
X129.54Y-81.275
X129.54Y-83.815
X129.54Y-86.355
X129.54Y-88.895
X129.54Y-91.435
X129.54Y-93.975
X129.54Y-96.515
X129.54Y-99.055
X129.54Y-101.595
X129.54Y-104.135
X129.54Y-106.675
X129.54Y-109.215
X129.54Y-111.755
X129.54Y-114.295
X129.54Y-116.835
X130.815Y-51.435
X133.355Y-51.435
X135.895Y-51.435
X138.435Y-51.435
X140.975Y-51.435
X144.78Y-133.65
X144.86Y-59.39
X146.05Y-49.23
X146.05Y-143.81
X147.28Y-138.65
X147.36Y-54.39
X148.59Y-49.23
X148.59Y-143.81
X149.78Y-133.65
X149.86Y-59.39
X165.1Y-81.28
X165.1Y-83.82
X165.1Y-86.36
X165.1Y-88.9
X165.1Y-91.44
X165.1Y-93.98
X165.1Y-96.52
X165.1Y-99.06
X165.1Y-101.6
X165.1Y-104.14
X165.1Y-106.68
X165.1Y-109.22
X165.1Y-111.76
X165.1Y-114.3
X165.1Y-116.84
X184.15Y-94.06
X184.15Y-99.06
X189.15Y-96.56
X194.31Y-95.25
X194.31Y-97.79
T5
X134.62Y-81.259
X134.62Y-83.799
X134.62Y-86.339
X134.62Y-88.879
X134.62Y-91.419
X134.62Y-93.959
X134.62Y-96.499
X134.62Y-99.039
X134.62Y-101.579
X134.62Y-104.119
X134.62Y-106.659
X134.62Y-109.199
X134.62Y-111.739
X134.62Y-114.279
X134.62Y-116.819
X160.02Y-81.259
X160.02Y-83.799
X160.02Y-86.339
X160.02Y-88.879
X160.02Y-91.419
X160.02Y-93.959
X160.02Y-96.499
X160.02Y-99.039
X160.02Y-101.579
X160.02Y-104.119
X160.02Y-106.659
X160.02Y-109.199
X160.02Y-111.739
X160.02Y-114.279
X160.02Y-116.819
T6
X115.57Y-92.71
X120.65Y-64.77
X120.65Y-72.39
X123.19Y-92.71
X149.86Y-62.484
X149.86Y-70.104
X154.94Y-76.2
X154.94Y-83.82
X160.02Y-62.484
X160.02Y-70.104
X170.18Y-91.44
X170.18Y-96.52
X170.18Y-101.6
X170.18Y-106.68
X177.8Y-91.44
X177.8Y-96.52
X177.8Y-101.6
X177.8Y-106.68
T7
X182.708Y-70.433
X184.458Y-73.464
X186.208Y-76.496
X187.958Y-79.527
T0
M30
