%TF.GenerationSoftware,KiCad,Pcbnew,(6.0.2)*%
%TF.CreationDate,2023-02-04T19:54:44+01:00*%
%TF.ProjectId,Fonometro,466f6e6f-6d65-4747-926f-2e6b69636164,rev?*%
%TF.SameCoordinates,Original*%
%TF.FileFunction,Soldermask,Bot*%
%TF.FilePolarity,Negative*%
%FSLAX46Y46*%
G04 Gerber Fmt 4.6, Leading zero omitted, Abs format (unit mm)*
G04 Created by KiCad (PCBNEW (6.0.2)) date 2023-02-04 19:54:44*
%MOMM*%
%LPD*%
G01*
G04 APERTURE LIST*
G04 Aperture macros list*
%AMRotRect*
0 Rectangle, with rotation*
0 The origin of the aperture is its center*
0 $1 length*
0 $2 width*
0 $3 Rotation angle, in degrees counterclockwise*
0 Add horizontal line*
21,1,$1,$2,0,0,$3*%
G04 Aperture macros list end*
%ADD10C,1.600000*%
%ADD11O,1.600000X1.600000*%
%ADD12R,1.600000X1.600000*%
%ADD13R,2.200000X2.200000*%
%ADD14O,2.200000X2.200000*%
%ADD15R,1.200000X1.200000*%
%ADD16C,1.200000*%
%ADD17R,1.700000X1.700000*%
%ADD18O,1.700000X1.700000*%
%ADD19R,1.560000X1.560000*%
%ADD20C,1.560000*%
%ADD21RotRect,2.400000X2.400000X120.000000*%
%ADD22C,2.400000*%
%ADD23RotRect,1.560000X1.560000X35.000000*%
%ADD24C,3.000000*%
%ADD25R,2.000000X2.000000*%
%ADD26C,2.000000*%
G04 APERTURE END LIST*
D10*
%TO.C,R36*%
X154940000Y-70104000D03*
D11*
X154940000Y-62484000D03*
%TD*%
D12*
%TO.C,C7*%
X120650000Y-83820000D03*
D10*
X118150000Y-83820000D03*
%TD*%
%TO.C,R10*%
X110190000Y-90170000D03*
D11*
X110190000Y-82550000D03*
%TD*%
D10*
%TO.C,R29*%
X133350000Y-68580000D03*
D11*
X140970000Y-68580000D03*
%TD*%
D10*
%TO.C,R23*%
X124460000Y-113025000D03*
D11*
X124460000Y-120645000D03*
%TD*%
D10*
%TO.C,C8*%
X129500000Y-77470000D03*
X124500000Y-77470000D03*
%TD*%
%TO.C,R13*%
X180340000Y-121920000D03*
D11*
X187960000Y-121920000D03*
%TD*%
D13*
%TO.C,D1*%
X170180000Y-106680000D03*
D14*
X177800000Y-106680000D03*
%TD*%
D10*
%TO.C,R18*%
X166370000Y-61930000D03*
D11*
X166370000Y-69550000D03*
%TD*%
D10*
%TO.C,R27*%
X149860000Y-113030000D03*
D11*
X149860000Y-105410000D03*
%TD*%
D10*
%TO.C,R24*%
X124460000Y-101600000D03*
D11*
X124460000Y-109220000D03*
%TD*%
D10*
%TO.C,R31*%
X127000000Y-64770000D03*
D11*
X127000000Y-72390000D03*
%TD*%
D15*
%TO.C,C2*%
X167640000Y-54310000D03*
D16*
X166140000Y-54310000D03*
%TD*%
D10*
%TO.C,R20*%
X128270000Y-131110000D03*
D11*
X128270000Y-123490000D03*
%TD*%
D12*
%TO.C,U2*%
X133360000Y-62220000D03*
D11*
X135900000Y-62220000D03*
X138440000Y-62220000D03*
X140980000Y-62220000D03*
X140980000Y-54600000D03*
X138440000Y-54600000D03*
X135900000Y-54600000D03*
X133360000Y-54600000D03*
%TD*%
D17*
%TO.C,MK2*%
X146050000Y-49230000D03*
D18*
X148590000Y-49230000D03*
%TD*%
D10*
%TO.C,R3*%
X153670000Y-54310000D03*
D11*
X161290000Y-54310000D03*
%TD*%
D10*
%TO.C,R33*%
X139700000Y-93980000D03*
D11*
X139700000Y-101600000D03*
%TD*%
D10*
%TO.C,R12*%
X153670000Y-59390000D03*
D11*
X161290000Y-59390000D03*
%TD*%
D17*
%TO.C,MK4*%
X148590000Y-143810000D03*
D18*
X146050000Y-143810000D03*
%TD*%
D10*
%TO.C,R14*%
X184150000Y-102870000D03*
D11*
X184150000Y-110490000D03*
%TD*%
D19*
%TO.C,R4*%
X149860000Y-59390000D03*
D20*
X147360000Y-54390000D03*
X144860000Y-59390000D03*
%TD*%
D10*
%TO.C,R37*%
X149860000Y-83820000D03*
D11*
X149860000Y-76200000D03*
%TD*%
D10*
%TO.C,C6*%
X165140000Y-77470000D03*
X170140000Y-77470000D03*
%TD*%
%TO.C,R21*%
X106680000Y-110485000D03*
D11*
X106680000Y-102865000D03*
%TD*%
D10*
%TO.C,R35*%
X144780000Y-70104000D03*
D11*
X144780000Y-62484000D03*
%TD*%
D19*
%TO.C,R8*%
X144780000Y-133650000D03*
D20*
X147280000Y-138650000D03*
X149780000Y-133650000D03*
%TD*%
D15*
%TO.C,C4*%
X127000000Y-138730000D03*
D16*
X128500000Y-138730000D03*
%TD*%
D17*
%TO.C,J2*%
X129540000Y-116835000D03*
D18*
X129540000Y-114295000D03*
X129540000Y-111755000D03*
X129540000Y-109215000D03*
X129540000Y-106675000D03*
X129540000Y-104135000D03*
X129540000Y-101595000D03*
X129540000Y-99055000D03*
X129540000Y-96515000D03*
X129540000Y-93975000D03*
X129540000Y-91435000D03*
X129540000Y-88895000D03*
X129540000Y-86355000D03*
X129540000Y-83815000D03*
X129540000Y-81275000D03*
%TD*%
D19*
%TO.C,R6*%
X184150000Y-99060000D03*
D20*
X189150000Y-96560000D03*
X184150000Y-94060000D03*
%TD*%
D13*
%TO.C,D8*%
X160020000Y-70104000D03*
D14*
X160020000Y-62484000D03*
%TD*%
D13*
%TO.C,D5*%
X120650000Y-72390000D03*
D14*
X120650000Y-64770000D03*
%TD*%
D15*
%TO.C,C1*%
X105110000Y-76200000D03*
D16*
X105110000Y-77700000D03*
%TD*%
D13*
%TO.C,D7*%
X149860000Y-70104000D03*
D14*
X149860000Y-62484000D03*
%TD*%
D12*
%TO.C,U1*%
X111770000Y-104135000D03*
D11*
X111770000Y-106675000D03*
X111770000Y-109215000D03*
X111770000Y-111755000D03*
X111770000Y-114295000D03*
X111770000Y-116835000D03*
X111770000Y-119375000D03*
X119390000Y-119375000D03*
X119390000Y-116835000D03*
X119390000Y-114295000D03*
X119390000Y-111755000D03*
X119390000Y-109215000D03*
X119390000Y-106675000D03*
X119390000Y-104135000D03*
%TD*%
D13*
%TO.C,D6*%
X123190000Y-92710000D03*
D14*
X115570000Y-92710000D03*
%TD*%
D10*
%TO.C,R9*%
X114000000Y-71120000D03*
D11*
X106380000Y-71120000D03*
%TD*%
D17*
%TO.C,MK1*%
X100030000Y-97790000D03*
D18*
X100030000Y-95250000D03*
%TD*%
D19*
%TO.C,R2*%
X110190000Y-93980000D03*
D20*
X105190000Y-96480000D03*
X110190000Y-98980000D03*
%TD*%
D10*
%TO.C,R17*%
X112730000Y-77470000D03*
D11*
X120350000Y-77470000D03*
%TD*%
D17*
%TO.C,MK3*%
X194310000Y-95250000D03*
D18*
X194310000Y-97790000D03*
%TD*%
D17*
%TO.C,J1*%
X165100000Y-116840000D03*
D18*
X165100000Y-114300000D03*
X165100000Y-111760000D03*
X165100000Y-109220000D03*
X165100000Y-106680000D03*
X165100000Y-104140000D03*
X165100000Y-101600000D03*
X165100000Y-99060000D03*
X165100000Y-96520000D03*
X165100000Y-93980000D03*
X165100000Y-91440000D03*
X165100000Y-88900000D03*
X165100000Y-86360000D03*
X165100000Y-83820000D03*
X165100000Y-81280000D03*
%TD*%
D10*
%TO.C,R25*%
X139700000Y-113030000D03*
D11*
X139700000Y-105410000D03*
%TD*%
D13*
%TO.C,D4*%
X177800000Y-91440000D03*
D14*
X170180000Y-91440000D03*
%TD*%
D21*
%TO.C,J3*%
X187958398Y-79526634D03*
D22*
X186208398Y-76495545D03*
X184458398Y-73464456D03*
X182708398Y-70433367D03*
%TD*%
D23*
%TO.C,R30*%
X121127309Y-59289041D03*
D20*
X126043071Y-61950860D03*
X125223069Y-56421159D03*
%TD*%
D15*
%TO.C,C3*%
X189230000Y-116840000D03*
D16*
X189230000Y-115340000D03*
%TD*%
D10*
%TO.C,R11*%
X172720000Y-63200000D03*
D11*
X172720000Y-55580000D03*
%TD*%
D10*
%TO.C,R22*%
X106680000Y-120645000D03*
D11*
X106680000Y-113025000D03*
%TD*%
D10*
%TO.C,R19*%
X181610000Y-115570000D03*
D11*
X173990000Y-115570000D03*
%TD*%
D13*
%TO.C,D3*%
X170180000Y-96520000D03*
D14*
X177800000Y-96520000D03*
%TD*%
D10*
%TO.C,R26*%
X144780000Y-113030000D03*
D11*
X144780000Y-105410000D03*
%TD*%
D10*
%TO.C,R34*%
X123190000Y-97790000D03*
D11*
X115570000Y-97790000D03*
%TD*%
D15*
%TO.C,C9*%
X115570000Y-130810000D03*
D16*
X117070000Y-130810000D03*
%TD*%
D10*
%TO.C,R16*%
X140970000Y-133650000D03*
D11*
X133350000Y-133650000D03*
%TD*%
D10*
%TO.C,R32*%
X139700000Y-81280000D03*
D11*
X139700000Y-88900000D03*
%TD*%
D10*
%TO.C,R7*%
X140970000Y-138730000D03*
D11*
X133350000Y-138730000D03*
%TD*%
D13*
%TO.C,D9*%
X154940000Y-83820000D03*
D14*
X154940000Y-76200000D03*
%TD*%
D10*
%TO.C,R28*%
X154940000Y-113030000D03*
D11*
X154940000Y-105410000D03*
%TD*%
D13*
%TO.C,D2*%
X177800000Y-101600000D03*
D14*
X170180000Y-101600000D03*
%TD*%
D12*
%TO.C,C5*%
X172720000Y-83820000D03*
D10*
X175220000Y-83820000D03*
%TD*%
%TO.C,R1*%
X105110000Y-90170000D03*
D11*
X105110000Y-82550000D03*
%TD*%
D10*
%TO.C,R15*%
X121920000Y-129840000D03*
D11*
X121920000Y-137460000D03*
%TD*%
D24*
%TO.C,U3*%
X135040000Y-73299000D03*
X135040000Y-120249000D03*
X159550000Y-73299000D03*
X159550000Y-120249000D03*
D25*
X134620000Y-81259000D03*
D26*
X134620000Y-83799000D03*
X134620000Y-86339000D03*
X134620000Y-88879000D03*
X134620000Y-91419000D03*
X134620000Y-93959000D03*
X134620000Y-96499000D03*
X134620000Y-99039000D03*
X134620000Y-101579000D03*
X134620000Y-104119000D03*
X134620000Y-106659000D03*
X134620000Y-109199000D03*
X134620000Y-111739000D03*
X134620000Y-114279000D03*
X134620000Y-116819000D03*
X160020000Y-116819000D03*
X160020000Y-114279000D03*
X160020000Y-111739000D03*
X160020000Y-109199000D03*
X160020000Y-106659000D03*
X160020000Y-104119000D03*
X160020000Y-101579000D03*
X160020000Y-99039000D03*
X160020000Y-96499000D03*
X160020000Y-93959000D03*
X160020000Y-91419000D03*
X160020000Y-88879000D03*
X160020000Y-86339000D03*
X160020000Y-83799000D03*
X160020000Y-81259000D03*
%TD*%
D10*
%TO.C,C10*%
X113070000Y-125095000D03*
X118070000Y-125095000D03*
%TD*%
%TO.C,R5*%
X189230000Y-102870000D03*
D11*
X189230000Y-110490000D03*
%TD*%
M02*
